<svg width="32" height="32" viewBox="0 0 32 32" fill="none" xmlns="http://www.w3.org/2000/svg">
<path fill-rule="evenodd" clip-rule="evenodd" d="M16 28.8C23.0692 28.8 28.7999 23.0693 28.7999 16C28.7999 8.93077 23.0692 3.20001 16 3.20001C8.93071 3.20001 3.19995 8.93077 3.19995 16C3.19995 23.0693 8.93071 28.8 16 28.8ZM21.9313 14.8686L17.1313 10.0686C16.5065 9.4438 15.4934 9.4438 14.8686 10.0686L10.0686 14.8686C9.44374 15.4935 9.44374 16.5065 10.0686 17.1314C10.6934 17.7562 11.7065 17.7562 12.3313 17.1314L14.4 15.0628L14.3999 20.8C14.3999 21.6837 15.1163 22.4 15.9999 22.4C16.8836 22.4 17.6 21.6837 17.6 20.8V15.0628L19.6686 17.1314C20.2934 17.7562 21.3065 17.7562 21.9313 17.1314C22.5562 16.5065 22.5562 15.4935 21.9313 14.8686Z" fill="black"/>
</svg>
