<svg width="32" height="32" viewBox="0 0 32 32" fill="none" xmlns="http://www.w3.org/2000/svg">
<path d="M0 16C0 7.16344 7.16344 0 16 0C24.8366 0 32 7.16344 32 16C32 24.8366 24.8366 32 16 32C7.16344 32 0 24.8366 0 16Z" fill="black"/>
<path fill-rule="evenodd" clip-rule="evenodd" d="M15.9998 4.80005C9.81673 4.80005 4.7998 9.81697 4.7998 16.0001C4.7998 22.1832 9.81673 27.2001 15.9998 27.2001C22.1707 27.2001 27.1998 22.1832 27.1998 16.0001C27.1998 9.81697 22.1707 4.80005 15.9998 4.80005ZM23.3976 9.96274C24.7339 11.5905 25.5356 13.6677 25.5599 15.915C25.2441 15.8543 22.0857 15.2105 18.9031 15.6113C18.8302 15.4534 18.7694 15.2833 18.6966 15.1133C18.5022 14.6517 18.2836 14.178 18.0649 13.7285C21.5876 12.2951 23.1911 10.23 23.3976 9.96274ZM15.9998 6.45211C18.4293 6.45211 20.6523 7.36318 22.3408 8.85732C22.1707 9.10027 20.7252 11.0317 17.3239 12.3072C15.7568 9.42825 14.0198 7.07163 13.7525 6.70721C14.4692 6.53714 15.2224 6.45211 15.9998 6.45211ZM11.9304 7.35103C12.1855 7.69116 13.8862 10.0599 15.4775 12.8781C11.0072 14.0686 7.05925 14.0443 6.63408 14.0443C7.2536 11.0803 9.25794 8.61437 11.9304 7.35103ZM6.42757 16.0122C6.42757 15.915 6.42757 15.8178 6.42757 15.7207C6.84059 15.7328 11.4809 15.7936 16.2549 14.3602C16.5343 14.8946 16.7894 15.4412 17.0324 15.9879C16.9109 16.0243 16.7772 16.0608 16.6558 16.0972C11.7239 17.6885 9.10003 22.0374 8.88137 22.4018C7.36293 20.7133 6.42757 18.466 6.42757 16.0122ZM15.9998 25.5723C13.7889 25.5723 11.7482 24.8192 10.1326 23.5558C10.3026 23.2036 12.2462 19.4621 17.6397 17.5793C17.664 17.5671 17.6762 17.5671 17.7005 17.555C19.0488 21.0413 19.5955 23.9688 19.7412 24.807C18.5872 25.305 17.3239 25.5723 15.9998 25.5723ZM21.3326 23.9324C21.2354 23.3493 20.7252 20.5554 19.474 17.1176C22.4745 16.6438 25.0983 17.4213 25.4263 17.5307C25.0133 20.191 23.4827 22.4868 21.3326 23.9324Z" fill="white"/>
</svg>
