<svg width="32" height="32" viewBox="0 0 32 32" fill="none" xmlns="http://www.w3.org/2000/svg">
<path d="M0 16C0 7.16344 7.16344 0 16 0C24.8366 0 32 7.16344 32 16C32 24.8366 24.8366 32 16 32C7.16344 32 0 24.8366 0 16Z" fill="black"/>
<path d="M23.501 7.19995H8.49942C8.15484 7.19995 7.82438 7.33683 7.58073 7.58048C7.33708 7.82414 7.2002 8.1546 7.2002 8.49917V23.5007C7.2002 23.8453 7.33708 24.1758 7.58073 24.4194C7.82438 24.6631 8.15484 24.7999 8.49942 24.7999H23.501C23.8455 24.7999 24.176 24.6631 24.4197 24.4194C24.6633 24.1758 24.8002 23.8453 24.8002 23.5007V8.49917C24.8002 8.1546 24.6633 7.82414 24.4197 7.58048C24.176 7.33683 23.8455 7.19995 23.501 7.19995ZM12.446 22.193H9.79986V13.7877H12.446V22.193ZM11.1211 12.623C10.8209 12.6213 10.528 12.5307 10.2793 12.3627C10.0305 12.1947 9.83714 11.9567 9.72351 11.6789C9.60987 11.4011 9.58107 11.0959 9.64075 10.8017C9.70043 10.5075 9.84592 10.2376 10.0588 10.0261C10.2718 9.81449 10.5426 9.67075 10.8371 9.61296C11.1317 9.55516 11.4367 9.58592 11.7138 9.70134C11.9909 9.81676 12.2276 10.0117 12.394 10.2615C12.5604 10.5113 12.6491 10.8048 12.6489 11.105C12.6517 11.3059 12.614 11.5054 12.5381 11.6915C12.4622 11.8776 12.3496 12.0465 12.2071 12.1881C12.0645 12.3298 11.8949 12.4413 11.7083 12.516C11.5217 12.5907 11.322 12.6271 11.1211 12.623ZM22.1993 22.2003H19.5544V17.6084C19.5544 16.2542 18.9788 15.8362 18.2356 15.8362C17.451 15.8362 16.681 16.4277 16.681 17.6426V22.2003H14.0349V13.7938H16.5795V14.9586H16.6138C16.8692 14.4416 17.7639 13.558 19.1291 13.558C20.6055 13.558 22.2005 14.4343 22.2005 17.001L22.1993 22.2003Z" fill="white"/>
</svg>
