<svg width="32" height="32" viewBox="0 0 32 32" fill="none" xmlns="http://www.w3.org/2000/svg">
<path d="M0 16C0 7.16344 7.16344 0 16 0V0C24.8366 0 32 7.16344 32 16V16C32 24.8366 24.8366 32 16 32V32C7.16344 32 0 24.8366 0 16V16Z" fill="black"/>
<path fill-rule="evenodd" clip-rule="evenodd" d="M16.0001 4.80005C9.81697 4.80005 4.80005 9.81697 4.80005 16.0001C4.80005 22.1832 9.81697 27.2001 16.0001 27.2001C22.171 27.2001 27.2001 22.1832 27.2001 16.0001C27.2001 9.81697 22.171 4.80005 16.0001 4.80005ZM23.3979 9.96274C24.7341 11.5905 25.5359 13.6677 25.5602 15.915C25.2443 15.8543 22.0859 15.2105 18.9033 15.6113C18.8304 15.4534 18.7697 15.2833 18.6968 15.1133C18.5024 14.6517 18.2838 14.178 18.0651 13.7285C21.5879 12.2951 23.1914 10.23 23.3979 9.96274ZM16.0001 6.45211C18.4295 6.45211 20.6525 7.36318 22.3411 8.85732C22.171 9.10027 20.7254 11.0317 17.3241 12.3072C15.7571 9.42825 14.02 7.07163 13.7528 6.70721C14.4694 6.53714 15.2226 6.45211 16.0001 6.45211ZM11.9307 7.35103C12.1858 7.69116 13.8864 10.0599 15.4777 12.8781C11.0074 14.0686 7.05949 14.0443 6.63432 14.0443C7.25384 11.0803 9.25818 8.61437 11.9307 7.35103ZM6.42782 16.0122C6.42782 15.915 6.42782 15.8178 6.42782 15.7207C6.84083 15.7328 11.4812 15.7936 16.2551 14.3602C16.5346 14.8946 16.7897 15.4412 17.0326 15.9879C16.9111 16.0243 16.7775 16.0608 16.656 16.0972C11.7241 17.6885 9.10027 22.0374 8.88161 22.4018C7.36317 20.7133 6.42782 18.466 6.42782 16.0122ZM16.0001 25.5723C13.7892 25.5723 11.7484 24.8192 10.1328 23.5558C10.3029 23.2036 12.2464 19.4621 17.6399 17.5793C17.6642 17.5671 17.6764 17.5671 17.7007 17.555C19.049 21.0413 19.5958 23.9688 19.7415 24.807C18.5875 25.305 17.3241 25.5723 16.0001 25.5723ZM21.3328 23.9324C21.2356 23.3493 20.7254 20.5554 19.4742 17.1176C22.4747 16.6438 25.0985 17.4213 25.4265 17.5307C25.0135 20.191 23.4829 22.4868 21.3328 23.9324Z" fill="white"/>
</svg>
