<svg width="32" height="32" viewBox="0 0 32 32" fill="none" xmlns="http://www.w3.org/2000/svg">
<path d="M0 16C0 7.16344 7.16344 0 16 0C24.8366 0 32 7.16344 32 16C32 24.8366 24.8366 32 16 32C7.16344 32 0 24.8366 0 16Z" fill="black"/>
<path d="M16.0025 8.13034C18.5677 8.13034 18.8688 8.14178 19.8827 8.18751C20.8203 8.22944 21.3272 8.38571 21.6665 8.51912C22.1162 8.69445 22.4364 8.90027 22.7718 9.23569C23.1072 9.5711 23.3169 9.89127 23.4884 10.341C23.618 10.6803 23.7781 11.1872 23.82 12.1248C23.8657 13.1387 23.8772 13.4398 23.8772 16.005C23.8772 18.5702 23.8657 18.8713 23.82 19.8851C23.7781 20.8228 23.6218 21.3297 23.4884 21.6689C23.3131 22.1187 23.1072 22.4389 22.7718 22.7743C22.4364 23.1097 22.1162 23.3193 21.6665 23.4908C21.3272 23.6204 20.8203 23.7805 19.8827 23.8225C18.8688 23.8682 18.5677 23.8796 16.0025 23.8796C13.4374 23.8796 13.1362 23.8682 12.1224 23.8225C11.1847 23.7805 10.6778 23.6243 10.3386 23.4908C9.88881 23.3155 9.56864 23.1097 9.23322 22.7743C8.89781 22.4389 8.68817 22.1187 8.51665 21.6689C8.38706 21.3297 8.22697 20.8228 8.18505 19.8851C8.13931 18.8713 8.12787 18.5702 8.12787 16.005C8.12787 13.4398 8.13931 13.1387 8.18505 12.1248C8.22697 11.1872 8.38325 10.6803 8.51665 10.341C8.69198 9.89127 8.89781 9.5711 9.23322 9.23569C9.56864 8.90027 9.88881 8.69064 10.3386 8.51912C10.6778 8.38953 11.1847 8.22944 12.1224 8.18751C13.1362 8.13796 13.4412 8.13034 16.0025 8.13034ZM16.0025 6.3999C13.3954 6.3999 13.0676 6.41134 12.0423 6.45708C11.0208 6.50281 10.3233 6.66671 9.71348 6.90303C9.08076 7.14696 8.54714 7.47857 8.01353 8.01218C7.47991 8.5458 7.15212 9.08323 6.90437 9.71213C6.66805 10.322 6.50416 11.0195 6.45842 12.0448C6.41268 13.0663 6.40125 13.3941 6.40125 16.0012C6.40125 18.6083 6.41268 18.9361 6.45842 19.9614C6.50416 20.9829 6.66805 21.6804 6.90437 22.294C7.14831 22.9267 7.47991 23.4604 8.01353 23.994C8.54714 24.5276 9.08457 24.8554 9.71348 25.1031C10.3233 25.3394 11.0208 25.5033 12.0461 25.5491C13.0714 25.5948 13.3954 25.6063 16.0063 25.6063C18.6172 25.6063 18.9412 25.5948 19.9665 25.5491C20.988 25.5033 21.6855 25.3394 22.2992 25.1031C22.9319 24.8592 23.4655 24.5276 23.9991 23.994C24.5328 23.4604 24.8605 22.9229 25.1083 22.294C25.3446 21.6842 25.5085 20.9867 25.5542 19.9614C25.6 18.9361 25.6114 18.6121 25.6114 16.0012C25.6114 13.3903 25.6 13.0663 25.5542 12.041C25.5085 11.0195 25.3446 10.322 25.1083 9.70832C24.8644 9.0756 24.5328 8.54199 23.9991 8.00837C23.4655 7.47476 22.9281 7.14696 22.2992 6.89921C21.6893 6.6629 20.9918 6.499 19.9665 6.45326C18.9374 6.41134 18.6096 6.3999 16.0025 6.3999Z" fill="white"/>
<path d="M16.0025 8.13034C18.5677 8.13034 18.8688 8.14178 19.8827 8.18751C20.8203 8.22944 21.3272 8.38571 21.6665 8.51912C22.1162 8.69445 22.4364 8.90027 22.7718 9.23569C23.1072 9.5711 23.3169 9.89127 23.4884 10.341C23.618 10.6803 23.7781 11.1872 23.82 12.1248C23.8657 13.1387 23.8772 13.4398 23.8772 16.005C23.8772 18.5702 23.8657 18.8713 23.82 19.8851C23.7781 20.8228 23.6218 21.3297 23.4884 21.6689C23.3131 22.1187 23.1072 22.4389 22.7718 22.7743C22.4364 23.1097 22.1162 23.3193 21.6665 23.4908C21.3272 23.6204 20.8203 23.7805 19.8827 23.8225C18.8688 23.8682 18.5677 23.8796 16.0025 23.8796C13.4374 23.8796 13.1362 23.8682 12.1224 23.8225C11.1847 23.7805 10.6778 23.6243 10.3386 23.4908C9.88881 23.3155 9.56864 23.1097 9.23322 22.7743C8.89781 22.4389 8.68817 22.1187 8.51665 21.6689C8.38706 21.3297 8.22697 20.8228 8.18505 19.8851C8.13931 18.8713 8.12787 18.5702 8.12787 16.005C8.12787 13.4398 8.13931 13.1387 8.18505 12.1248C8.22697 11.1872 8.38325 10.6803 8.51665 10.341C8.69198 9.89127 8.89781 9.5711 9.23322 9.23569C9.56864 8.90027 9.88881 8.69064 10.3386 8.51912C10.6778 8.38953 11.1847 8.22944 12.1224 8.18751C13.1362 8.13796 13.4412 8.13034 16.0025 8.13034Z" fill="white"/>
<path d="M16.0026 11.073C13.2811 11.073 11.0704 13.2799 11.0704 16.0051C11.0704 18.7304 13.2773 20.9373 16.0026 20.9373C18.7278 20.9373 20.9347 18.7304 20.9347 16.0051C20.9347 13.2799 18.7278 11.073 16.0026 11.073ZM16.0026 19.203C14.234 19.203 12.8009 17.7699 12.8009 16.0013C12.8009 14.2328 14.234 12.7996 16.0026 12.7996C17.7711 12.7996 19.2043 14.2328 19.2043 16.0013C19.2043 17.7699 17.7711 19.203 16.0026 19.203Z" fill="black"/>
<path d="M21.1291 12.0258C21.7648 12.0258 22.2802 11.5104 22.2802 10.8747C22.2802 10.239 21.7648 9.72363 21.1291 9.72363C20.4934 9.72363 19.978 10.239 19.978 10.8747C19.978 11.5104 20.4934 12.0258 21.1291 12.0258Z" fill="black"/>
</svg>
